<mxfile host="app.diagrams.net" modified="2024-03-17T19:31:59.044Z" agent="Mozilla/5.0 (Windows NT 10.0; Win64; x64) AppleWebKit/537.36 (KHTML, like Gecko) Chrome/122.0.0.0 Safari/537.36" etag="Z57S2WFVt_YwGCHdqUCx" version="24.0.7" type="github">
  <diagram name="Page-1" id="fgNhmYWxTgoFgjbpEaJn">
    <mxGraphModel dx="1541" dy="380" grid="1" gridSize="10" guides="1" tooltips="1" connect="1" arrows="1" fold="1" page="1" pageScale="1" pageWidth="850" pageHeight="1100" math="0" shadow="0">
      <root>
        <mxCell id="0" />
        <mxCell id="1" parent="0" />
        <mxCell id="UC-QqFg8PlQt4lu4hi_7-17" style="edgeStyle=orthogonalEdgeStyle;rounded=0;orthogonalLoop=1;jettySize=auto;html=1;" edge="1" parent="1" source="UC-QqFg8PlQt4lu4hi_7-19" target="UC-QqFg8PlQt4lu4hi_7-21">
          <mxGeometry relative="1" as="geometry">
            <mxPoint x="-385.78999999999996" y="337.5" as="sourcePoint" />
            <mxPoint x="-310" y="261" as="targetPoint" />
            <Array as="points">
              <mxPoint x="-350" y="328" />
              <mxPoint x="-350" y="261" />
            </Array>
          </mxGeometry>
        </mxCell>
        <mxCell id="6-R9wHDpV8bMZaaF5xa7-7" value="Data Explorer" style="image;sketch=0;aspect=fixed;html=1;points=[];align=center;fontSize=12;image=img/lib/mscae/Azure_Data_Explorer_Clusters.svg;" parent="1" vertex="1">
          <mxGeometry x="220" y="330" width="70" height="70" as="geometry" />
        </mxCell>
        <mxCell id="6-R9wHDpV8bMZaaF5xa7-14" value="" style="edgeStyle=orthogonalEdgeStyle;rounded=0;orthogonalLoop=1;jettySize=auto;html=1;exitX=0.048;exitY=0.433;exitDx=0;exitDy=0;entryX=0.701;entryY=0.25;entryDx=0;entryDy=0;entryPerimeter=0;exitPerimeter=0;endArrow=classic;endFill=1;startArrow=classic;startFill=1;" parent="1" source="6-R9wHDpV8bMZaaF5xa7-7" target="6-R9wHDpV8bMZaaF5xa7-25" edge="1">
          <mxGeometry relative="1" as="geometry">
            <mxPoint x="815" y="390" as="sourcePoint" />
            <mxPoint x="701.33" y="390" as="targetPoint" />
          </mxGeometry>
        </mxCell>
        <mxCell id="6-R9wHDpV8bMZaaF5xa7-19" style="edgeStyle=orthogonalEdgeStyle;rounded=0;orthogonalLoop=1;jettySize=auto;html=1;exitX=0.923;exitY=0.609;exitDx=0;exitDy=0;exitPerimeter=0;" parent="1" source="UC-QqFg8PlQt4lu4hi_7-13" target="UC-QqFg8PlQt4lu4hi_7-21" edge="1">
          <mxGeometry relative="1" as="geometry">
            <mxPoint x="-395.210025884438" y="195.79999999999995" as="sourcePoint" />
            <mxPoint x="-310" y="261" as="targetPoint" />
            <Array as="points">
              <mxPoint x="-350" y="209" />
              <mxPoint x="-350" y="261" />
            </Array>
          </mxGeometry>
        </mxCell>
        <mxCell id="6-R9wHDpV8bMZaaF5xa7-21" value="" style="image;sketch=0;aspect=fixed;html=1;points=[];align=center;fontSize=12;image=img/lib/mscae/Dedicated_Event_Hub.svg;" parent="1" vertex="1">
          <mxGeometry x="-122.67" y="600" width="50" height="48" as="geometry" />
        </mxCell>
        <mxCell id="6-R9wHDpV8bMZaaF5xa7-25" value="Azure Event Hub" style="image;aspect=fixed;html=1;points=[];align=center;fontSize=12;image=img/lib/azure2/analytics/Event_Hubs.svg;" parent="1" vertex="1">
          <mxGeometry x="-122.67" y="350" width="44.67" height="40" as="geometry" />
        </mxCell>
        <mxCell id="UC-QqFg8PlQt4lu4hi_7-12" value="archive" style="image;aspect=fixed;html=1;points=[];align=center;fontSize=12;image=img/lib/azure2/storage/Data_Lake_Storage_Gen1.svg;" vertex="1" parent="1">
          <mxGeometry x="-286.92" y="480" width="73.84" height="60" as="geometry" />
        </mxCell>
        <mxCell id="UC-QqFg8PlQt4lu4hi_7-13" value="sender 1" style="image;aspect=fixed;html=1;points=[];align=center;fontSize=12;image=img/lib/azure2/compute/Virtual_Machine.svg;" vertex="1" parent="1">
          <mxGeometry x="-457" y="170" width="69" height="64" as="geometry" />
        </mxCell>
        <mxCell id="UC-QqFg8PlQt4lu4hi_7-18" style="edgeStyle=orthogonalEdgeStyle;rounded=0;orthogonalLoop=1;jettySize=auto;html=1;entryX=-0.007;entryY=0.561;entryDx=0;entryDy=0;entryPerimeter=0;" edge="1" parent="1" target="6-R9wHDpV8bMZaaF5xa7-25">
          <mxGeometry relative="1" as="geometry">
            <mxPoint x="-250.0000058077178" y="261.2666666666667" as="sourcePoint" />
            <mxPoint x="-128.68220999999994" y="349.97999999999996" as="targetPoint" />
            <Array as="points">
              <mxPoint x="-150" y="261" />
              <mxPoint x="-150" y="372" />
            </Array>
          </mxGeometry>
        </mxCell>
        <mxCell id="UC-QqFg8PlQt4lu4hi_7-19" value="sender n" style="image;aspect=fixed;html=1;points=[];align=center;fontSize=12;image=img/lib/azure2/compute/Virtual_Machines_Classic.svg;" vertex="1" parent="1">
          <mxGeometry x="-457" y="296" width="69" height="64" as="geometry" />
        </mxCell>
        <mxCell id="UC-QqFg8PlQt4lu4hi_7-20" value="archival&lt;div&gt;process&lt;/div&gt;" style="edgeStyle=orthogonalEdgeStyle;rounded=0;orthogonalLoop=1;jettySize=auto;html=1;entryX=0.517;entryY=0.167;entryDx=0;entryDy=0;entryPerimeter=0;" edge="1" parent="1" source="UC-QqFg8PlQt4lu4hi_7-21" target="UC-QqFg8PlQt4lu4hi_7-12">
          <mxGeometry relative="1" as="geometry">
            <mxPoint x="-262" y="309" as="sourcePoint" />
          </mxGeometry>
        </mxCell>
        <mxCell id="UC-QqFg8PlQt4lu4hi_7-21" value="syslog server" style="image;aspect=fixed;perimeter=ellipsePerimeter;html=1;align=center;shadow=0;dashed=0;spacingTop=3;image=img/lib/active_directory/generic_server.svg;" vertex="1" parent="1">
          <mxGeometry x="-280" y="207.43" width="60" height="107.14" as="geometry" />
        </mxCell>
        <mxCell id="UC-QqFg8PlQt4lu4hi_7-23" value="&lt;div&gt;fetch data from event hub&lt;/div&gt;&lt;div&gt;and become sender n+1&lt;/div&gt;" style="image;aspect=fixed;html=1;points=[];align=center;fontSize=12;image=img/lib/azure2/compute/Virtual_Machines_Classic.svg;" vertex="1" parent="1">
          <mxGeometry x="-457" y="584" width="69" height="64" as="geometry" />
        </mxCell>
        <mxCell id="UC-QqFg8PlQt4lu4hi_7-24" value="" style="edgeStyle=orthogonalEdgeStyle;rounded=0;orthogonalLoop=1;jettySize=auto;html=1;exitX=-0.04;exitY=0.201;exitDx=0;exitDy=0;exitPerimeter=0;endArrow=none;endFill=0;startArrow=classic;startFill=1;" edge="1" parent="1" source="6-R9wHDpV8bMZaaF5xa7-21" target="UC-QqFg8PlQt4lu4hi_7-23">
          <mxGeometry relative="1" as="geometry">
            <mxPoint x="233" y="370" as="sourcePoint" />
            <mxPoint x="-79" y="370" as="targetPoint" />
            <Array as="points">
              <mxPoint x="-330" y="610" />
              <mxPoint x="-330" y="610" />
            </Array>
          </mxGeometry>
        </mxCell>
        <mxCell id="UC-QqFg8PlQt4lu4hi_7-25" value="auditlogs" style="edgeStyle=orthogonalEdgeStyle;rounded=0;orthogonalLoop=1;jettySize=auto;html=1;exitX=0.048;exitY=0.433;exitDx=0;exitDy=0;entryX=0.931;entryY=0.593;entryDx=0;entryDy=0;entryPerimeter=0;exitPerimeter=0;endArrow=classic;endFill=1;startArrow=classic;startFill=1;" edge="1" parent="1" target="6-R9wHDpV8bMZaaF5xa7-21">
          <mxGeometry relative="1" as="geometry">
            <mxPoint x="243" y="380" as="sourcePoint" />
            <mxPoint x="-69" y="380" as="targetPoint" />
            <Array as="points">
              <mxPoint x="243" y="630" />
              <mxPoint x="100" y="630" />
              <mxPoint x="100" y="629" />
            </Array>
          </mxGeometry>
        </mxCell>
        <mxCell id="UC-QqFg8PlQt4lu4hi_7-26" value="auditlogs" style="edgeStyle=orthogonalEdgeStyle;rounded=0;orthogonalLoop=1;jettySize=auto;html=1;exitX=0.456;exitY=-0.014;exitDx=0;exitDy=0;exitPerimeter=0;endArrow=classic;endFill=1;startArrow=classic;startFill=1;" edge="1" parent="1" source="6-R9wHDpV8bMZaaF5xa7-21" target="UC-QqFg8PlQt4lu4hi_7-12">
          <mxGeometry relative="1" as="geometry">
            <mxPoint x="253" y="390" as="sourcePoint" />
            <mxPoint x="-59" y="390" as="targetPoint" />
          </mxGeometry>
        </mxCell>
        <mxCell id="UC-QqFg8PlQt4lu4hi_7-27" style="edgeStyle=orthogonalEdgeStyle;rounded=0;orthogonalLoop=1;jettySize=auto;html=1;exitX=0.502;exitY=0.014;exitDx=0;exitDy=0;exitPerimeter=0;entryX=0;entryY=0.5;entryDx=0;entryDy=0;" edge="1" parent="1" source="UC-QqFg8PlQt4lu4hi_7-23" target="UC-QqFg8PlQt4lu4hi_7-21">
          <mxGeometry relative="1" as="geometry">
            <mxPoint x="-378" y="338" as="sourcePoint" />
            <mxPoint x="-290" y="271" as="targetPoint" />
            <Array as="points">
              <mxPoint x="-422" y="560" />
              <mxPoint x="-350" y="560" />
              <mxPoint x="-350" y="261" />
            </Array>
          </mxGeometry>
        </mxCell>
        <mxCell id="UC-QqFg8PlQt4lu4hi_7-28" value="" style="image;aspect=fixed;html=1;points=[];align=center;fontSize=12;image=img/lib/azure2/analytics/Log_Analytics_Workspaces.svg;" vertex="1" parent="1">
          <mxGeometry x="210" y="130" width="64" height="64" as="geometry" />
        </mxCell>
        <mxCell id="UC-QqFg8PlQt4lu4hi_7-31" value="" style="edgeStyle=orthogonalEdgeStyle;rounded=0;orthogonalLoop=1;jettySize=auto;html=1;" edge="1" parent="1" source="UC-QqFg8PlQt4lu4hi_7-29" target="UC-QqFg8PlQt4lu4hi_7-28">
          <mxGeometry relative="1" as="geometry">
            <mxPoint x="4.5" y="274" as="targetPoint" />
          </mxGeometry>
        </mxCell>
        <mxCell id="UC-QqFg8PlQt4lu4hi_7-29" value="logstash" style="image;aspect=fixed;html=1;points=[];align=center;fontSize=12;image=img/lib/azure2/compute/Virtual_Machine.svg;" vertex="1" parent="1">
          <mxGeometry x="-30" y="130" width="69" height="64" as="geometry" />
        </mxCell>
        <mxCell id="UC-QqFg8PlQt4lu4hi_7-32" value="" style="edgeStyle=orthogonalEdgeStyle;rounded=0;orthogonalLoop=1;jettySize=auto;html=1;entryX=0.008;entryY=0.434;entryDx=0;entryDy=0;entryPerimeter=0;" edge="1" parent="1" source="UC-QqFg8PlQt4lu4hi_7-21" target="UC-QqFg8PlQt4lu4hi_7-29">
          <mxGeometry relative="1" as="geometry">
            <mxPoint x="49" y="172" as="sourcePoint" />
            <mxPoint x="220" y="172" as="targetPoint" />
            <Array as="points">
              <mxPoint x="-100" y="261" />
              <mxPoint x="-100" y="158" />
            </Array>
          </mxGeometry>
        </mxCell>
        <mxCell id="UC-QqFg8PlQt4lu4hi_7-33" value="loki" style="image;aspect=fixed;html=1;points=[];align=center;fontSize=12;image=img/lib/azure2/compute/Virtual_Machine.svg;" vertex="1" parent="1">
          <mxGeometry x="200" y="30" width="69" height="64" as="geometry" />
        </mxCell>
        <mxCell id="UC-QqFg8PlQt4lu4hi_7-34" value="" style="edgeStyle=orthogonalEdgeStyle;rounded=0;orthogonalLoop=1;jettySize=auto;html=1;entryX=-0.008;entryY=0.455;entryDx=0;entryDy=0;entryPerimeter=0;exitX=1;exitY=0.5;exitDx=0;exitDy=0;" edge="1" parent="1" source="UC-QqFg8PlQt4lu4hi_7-21" target="UC-QqFg8PlQt4lu4hi_7-33">
          <mxGeometry relative="1" as="geometry">
            <mxPoint x="-212" y="250" as="sourcePoint" />
            <mxPoint x="-19" y="168" as="targetPoint" />
            <Array as="points">
              <mxPoint x="-220" y="260" />
              <mxPoint x="-150" y="260" />
              <mxPoint x="-150" y="59" />
            </Array>
          </mxGeometry>
        </mxCell>
      </root>
    </mxGraphModel>
  </diagram>
</mxfile>
